<svg width="20" height="14" viewBox="0 0 20 14" fill="none" xmlns="http://www.w3.org/2000/svg">
<path d="M17.6895 6.875L14.0273 10.5371C12.5625 12.002 10.1895 12.002 8.75391 10.5371C7.34766 9.13086 7.25977 6.9043 8.54883 5.43945L8.72461 5.26367C8.87109 5.05859 9.19336 5.0293 9.36914 5.20508C9.57422 5.38086 9.60352 5.67383 9.42773 5.87891L9.28125 6.05469C8.31445 7.16797 8.37305 8.83789 9.39844 9.86328C10.5117 10.9766 12.2695 10.9766 13.3828 9.86328L17.0156 6.23047C18.1289 5.11719 18.1289 3.35938 17.0156 2.24609C15.9316 1.16211 14.1445 1.16211 13.0605 2.24609L12.3867 2.91992C12.2109 3.0957 11.918 3.0957 11.7129 2.91992C11.5371 2.71484 11.5371 2.42188 11.7129 2.24609L12.3867 1.57227C13.8516 0.107422 16.2246 0.107422 17.6895 1.57227C19.1543 3.03711 19.1543 5.41016 17.6895 6.875ZM1.78125 6.875L5.44336 3.24219C6.9082 1.77734 9.25195 1.77734 10.7461 3.24219C12.123 4.61914 12.2109 6.8457 10.9219 8.33984L10.7461 8.51562C10.5996 8.7207 10.3066 8.75 10.1016 8.57422C9.89648 8.39844 9.86719 8.10547 10.043 7.90039L10.2188 7.72461C11.1562 6.61133 11.0977 4.94141 10.0723 3.91602C8.95898 2.80273 7.20117 2.80273 6.08789 3.91602L2.45508 7.54883C1.3418 8.66211 1.3418 10.4199 2.45508 11.5332C3.53906 12.6172 5.32617 12.6172 6.41016 11.5332L7.08398 10.8594C7.25977 10.6836 7.55273 10.6836 7.75781 10.8594C7.93359 11.0352 7.93359 11.3574 7.75781 11.5332L7.08398 12.1777C5.61914 13.6426 3.24609 13.6426 1.78125 12.1777C0.316406 10.7129 0.316406 8.33984 1.78125 6.875Z" fill="#C9CED6"/>
</svg>
